<svg width="41" height="40" viewBox="0 0 41 40" fill="none" xmlns="http://www.w3.org/2000/svg">
<rect x="0.5" width="40" height="40" rx="12" fill="#27272A"/>
<g clip-path="url(#clip0_4403_1312)">
<path d="M14.072 29.2858L11.2148 26.4287L14.072 23.5715" stroke="#D4D4D8" stroke-linecap="round" stroke-linejoin="round"/>
<path d="M18.3574 29.2858L21.2146 26.4287L18.3574 23.5715" stroke="#D4D4D8" stroke-linecap="round" stroke-linejoin="round"/>
<path d="M14.0723 20.7144V12.1429C14.0723 11.764 14.2228 11.4007 14.4907 11.1328C14.7586 10.8649 15.122 10.7144 15.5008 10.7144H22.6437L29.7866 17.8572V27.8572C29.7866 28.2361 29.636 28.5995 29.3681 28.8674C29.1002 29.1353 28.7369 29.2858 28.358 29.2858H24.0723" stroke="#D4D4D8" stroke-linecap="round" stroke-linejoin="round"/>
<path d="M22.6426 10.7144V17.8572H29.7854" stroke="#D4D4D8" stroke-linecap="round" stroke-linejoin="round"/>
</g>
<g clip-path="url(#clip1_4403_1312)">
<path d="M19.4993 31.3334C22.9972 31.3334 25.8327 28.4979 25.8327 25.0001C25.8327 21.5023 22.9972 18.6667 19.4993 18.6667C16.0015 18.6667 13.166 21.5023 13.166 25.0001C13.166 28.4979 16.0015 31.3334 19.4993 31.3334Z" fill="#AE7EDE" stroke="#27272A" stroke-linecap="round" stroke-linejoin="round"/>
<path d="M16.875 25L18.625 26.75L22.125 23.25" stroke="#27272A" stroke-linecap="round" stroke-linejoin="round"/>
</g>
<defs>
<clipPath id="clip0_4403_1312">
<rect width="20" height="20" fill="white" transform="translate(10.5 10)"/>
</clipPath>
<clipPath id="clip1_4403_1312">
<rect width="14" height="14" fill="white" transform="translate(12.5 18)"/>
</clipPath>
</defs>
</svg>
