<svg width="40" height="40" viewBox="0 0 40 40" fill="none" xmlns="http://www.w3.org/2000/svg">
<rect width="40" height="40" rx="12" fill="#27272A"/>
<path d="M22.8574 13.5714H14.286C13.497 13.5714 12.8574 14.211 12.8574 15V27.8571C12.8574 28.6461 13.497 29.2857 14.286 29.2857H22.8574C23.6464 29.2857 24.286 28.6461 24.286 27.8571V15C24.286 14.211 23.6464 13.5714 22.8574 13.5714Z" stroke="#D4D4D8" stroke-linecap="round" stroke-linejoin="round"/>
<path d="M15.7148 17.1428H21.4291" stroke="#D4D4D8" stroke-linecap="round" stroke-linejoin="round"/>
<path d="M15.7148 20.7142H21.4291" stroke="#D4D4D8" stroke-linecap="round" stroke-linejoin="round"/>
<path d="M15.7148 24.2856H18.572" stroke="#D4D4D8" stroke-linecap="round" stroke-linejoin="round"/>
<path d="M16.4287 10.7142H25.7144C26.0933 10.7142 26.4567 10.8647 26.7246 11.1327C26.9925 11.4006 27.143 11.7639 27.143 12.1428V25.7142" stroke="#D4D4D8" stroke-linecap="round" stroke-linejoin="round"/>
</svg>
