<svg width="44" height="44" viewBox="0 0 44 44" fill="none" xmlns="http://www.w3.org/2000/svg">
<rect width="44" height="44" rx="12" fill="#27272A"/>
<g clip-path="url(#clip0_6546_251980)">
<path d="M25.9246 12.3608C25.8308 12.267 25.7036 12.2144 25.571 12.2144H19.1424C18.6309 12.2144 18.1404 12.4175 17.7787 12.7792C17.4171 13.1409 17.2139 13.6314 17.2139 14.1429V26.2858C17.2139 26.7973 17.4171 27.2878 17.7787 27.6495C18.1404 28.0112 18.6309 28.2144 19.1424 28.2144H28.4282C28.9396 28.2144 29.4302 28.0112 29.7919 27.6495C30.1535 27.2878 30.3567 26.7973 30.3567 26.2858V17.0001C30.3567 16.8675 30.304 16.7403 30.2103 16.6465L25.9246 12.3608Z" fill="#A1A1AA" stroke="#27272A" stroke-linecap="round" stroke-linejoin="round"/>
<path d="M25.5711 31.2857H15.5711C15.1923 31.2857 14.8289 31.1352 14.561 30.8673C14.2931 30.5994 14.1426 30.236 14.1426 29.8571V17" stroke="#A1A1AA" stroke-linecap="round" stroke-linejoin="round"/>
</g>
<defs>
<clipPath id="clip0_6546_251980">
<rect width="20" height="20" fill="white" transform="translate(12 12)"/>
</clipPath>
</defs>
</svg>
