<svg width="86" height="28" viewBox="0 0 86 28" fill="none" xmlns="http://www.w3.org/2000/svg">
<path d="M0 8C0 3.58172 3.58172 0 8 0H78C82.4183 0 86 3.58172 86 8V20C86 24.4183 82.4183 28 78 28H8C3.58172 28 0 24.4183 0 20V8Z" fill="#F5A524" fill-opacity="0.2"/>
<rect x="8" y="10" width="8" height="8" rx="4" fill="#F5A524"/>
<path d="M24.9588 18V9.27273H26.2756V13.0653H30.6264V9.27273H31.9474V18H30.6264V14.1946H26.2756V18H24.9588ZM33.7628 18V11.4545H35.0369V18H33.7628ZM34.4062 10.4446C34.1847 10.4446 33.9943 10.3707 33.8352 10.223C33.679 10.0724 33.6009 9.89347 33.6009 9.68608C33.6009 9.47585 33.679 9.29687 33.8352 9.14915C33.9943 8.99858 34.1847 8.9233 34.4062 8.9233C34.6278 8.9233 34.8168 8.99858 34.973 9.14915C35.1321 9.29687 35.2116 9.47585 35.2116 9.68608C35.2116 9.89347 35.1321 10.0724 34.973 10.223C34.8168 10.3707 34.6278 10.4446 34.4062 10.4446ZM39.4954 20.5909C38.9755 20.5909 38.5281 20.5227 38.1531 20.3864C37.7809 20.25 37.4769 20.0696 37.2411 19.8452C37.0053 19.6207 36.8292 19.375 36.7127 19.108L37.8079 18.6562C37.8846 18.7812 37.9869 18.9134 38.1147 19.0526C38.2454 19.1946 38.4215 19.3153 38.6431 19.4148C38.8675 19.5142 39.1559 19.5639 39.5082 19.5639C39.9911 19.5639 40.3903 19.446 40.7056 19.2102C41.021 18.9773 41.1786 18.6051 41.1786 18.0938V16.8068H41.0977C41.021 16.946 40.9102 17.1009 40.7653 17.2713C40.6232 17.4418 40.4272 17.5895 40.1772 17.7145C39.9272 17.8395 39.6019 17.902 39.2013 17.902C38.6843 17.902 38.2184 17.7812 37.8036 17.5398C37.3917 17.2955 37.065 16.9361 36.8235 16.4616C36.5849 15.9844 36.4656 15.3977 36.4656 14.7017C36.4656 14.0057 36.5835 13.4091 36.8192 12.9119C37.0579 12.4148 37.3846 12.0341 37.7994 11.7699C38.2141 11.5028 38.6843 11.3693 39.2099 11.3693C39.6161 11.3693 39.9442 11.4375 40.1942 11.5739C40.4442 11.7074 40.6388 11.8636 40.7781 12.0426C40.9201 12.2216 41.0295 12.3793 41.1062 12.5156H41.1999V11.4545H42.4485V18.1449C42.4485 18.7074 42.3178 19.169 42.0565 19.5298C41.7951 19.8906 41.4414 20.1577 40.9954 20.331C40.5522 20.5043 40.0522 20.5909 39.4954 20.5909ZM39.4826 16.8452C39.8491 16.8452 40.1587 16.7599 40.4116 16.5895C40.6673 16.4162 40.8604 16.169 40.9911 15.848C41.1246 15.5241 41.1914 15.1364 41.1914 14.6847C41.1914 14.2443 41.1261 13.8565 40.9954 13.5213C40.8647 13.1861 40.6729 12.9247 40.4201 12.7372C40.1673 12.5469 39.8548 12.4517 39.4826 12.4517C39.0991 12.4517 38.7795 12.5511 38.5238 12.75C38.2681 12.946 38.0749 13.2131 37.9442 13.5511C37.8164 13.8892 37.7525 14.267 37.7525 14.6847C37.7525 15.1136 37.8178 15.4901 37.9485 15.8139C38.0792 16.1378 38.2724 16.3906 38.5281 16.5724C38.7866 16.7543 39.1048 16.8452 39.4826 16.8452ZM45.4315 14.1136V18H44.1573V9.27273H45.4144V12.5199H45.4954C45.6488 12.1676 45.8832 11.8878 46.1985 11.6804C46.5138 11.473 46.9258 11.3693 47.4343 11.3693C47.8832 11.3693 48.2752 11.4616 48.6104 11.6463C48.9485 11.831 49.2099 12.1065 49.3945 12.473C49.582 12.8366 49.6758 13.2912 49.6758 13.8366V18H48.4016V13.9901C48.4016 13.5099 48.2781 13.1378 48.0309 12.8736C47.7837 12.6065 47.44 12.473 46.9996 12.473C46.6985 12.473 46.4286 12.5369 46.19 12.6648C45.9542 12.7926 45.7681 12.9801 45.6317 13.2273C45.4982 13.4716 45.4315 13.767 45.4315 14.1136ZM54.6541 18V9.27273H57.7649C58.4411 9.27273 59.0021 9.3892 59.4482 9.62216C59.897 9.85511 60.2322 10.1776 60.4538 10.5895C60.6754 10.9986 60.7862 11.4716 60.7862 12.0085C60.7862 12.5426 60.674 13.0128 60.4496 13.419C60.228 13.8224 59.8928 14.1364 59.4439 14.3608C58.9979 14.5852 58.4368 14.6974 57.7607 14.6974H55.4041V13.5639H57.6413C58.0675 13.5639 58.4141 13.5028 58.6811 13.3807C58.951 13.2585 59.1484 13.081 59.2734 12.848C59.3984 12.6151 59.4609 12.3352 59.4609 12.0085C59.4609 11.679 59.397 11.3935 59.2692 11.152C59.1442 10.9105 58.9467 10.7259 58.6768 10.598C58.4098 10.4673 58.0589 10.402 57.6243 10.402H55.9709V18H54.6541ZM58.9624 14.0625L61.1186 18H59.6186L57.505 14.0625H58.9624ZM62.2862 18V11.4545H63.5604V18H62.2862ZM62.9297 10.4446C62.7081 10.4446 62.5178 10.3707 62.3587 10.223C62.2024 10.0724 62.1243 9.89347 62.1243 9.68608C62.1243 9.47585 62.2024 9.29687 62.3587 9.14915C62.5178 8.99858 62.7081 8.9233 62.9297 8.9233C63.1513 8.9233 63.3402 8.99858 63.4964 9.14915C63.6555 9.29687 63.7351 9.47585 63.7351 9.68608C63.7351 9.89347 63.6555 10.0724 63.4964 10.223C63.3402 10.3707 63.1513 10.4446 62.9297 10.4446ZM70.1793 13.0526L69.0245 13.2571C68.9762 13.1094 68.8995 12.9687 68.7944 12.8352C68.6921 12.7017 68.5529 12.5923 68.3768 12.5071C68.2006 12.4219 67.9805 12.3793 67.7163 12.3793C67.3555 12.3793 67.0543 12.4602 66.8129 12.6222C66.5714 12.7812 66.4506 12.9872 66.4506 13.2401C66.4506 13.4588 66.5316 13.6349 66.6935 13.7685C66.8555 13.902 67.1168 14.0114 67.4776 14.0966L68.5174 14.3352C69.1197 14.4744 69.5685 14.6889 69.864 14.9787C70.1594 15.2685 70.3072 15.6449 70.3072 16.108C70.3072 16.5 70.1935 16.8494 69.9663 17.1562C69.7418 17.4602 69.4279 17.6989 69.0245 17.8722C68.6239 18.0455 68.1594 18.1321 67.631 18.1321C66.8981 18.1321 66.3001 17.9759 65.837 17.6634C65.3739 17.348 65.0898 16.9006 64.9847 16.321L66.2163 16.1335C66.293 16.4545 66.4506 16.6974 66.6893 16.8622C66.9279 17.0241 67.239 17.1051 67.6225 17.1051C68.0401 17.1051 68.3739 17.0185 68.6239 16.8452C68.8739 16.669 68.9989 16.4545 68.9989 16.2017C68.9989 15.9972 68.9222 15.8253 68.7688 15.6861C68.6183 15.5469 68.3867 15.4418 68.0742 15.3707L66.9663 15.1278C66.3555 14.9886 65.9038 14.767 65.6112 14.4631C65.3214 14.1591 65.1765 13.7741 65.1765 13.3082C65.1765 12.9219 65.2844 12.5838 65.5004 12.294C65.7163 12.0043 66.0146 11.7784 66.3952 11.6165C66.7759 11.4517 67.212 11.3693 67.7035 11.3693C68.4109 11.3693 68.9677 11.5227 69.3739 11.8295C69.7802 12.1335 70.0487 12.5412 70.1793 13.0526ZM72.88 15.7798L72.8714 14.2244H73.093L75.701 11.4545H77.2266L74.2521 14.608H74.0518L72.88 15.7798ZM71.7081 18V9.27273H72.9822V18H71.7081ZM75.8416 18L73.4979 14.8892L74.3757 13.9986L77.4055 18H75.8416Z" fill="#F5A524"/>
</svg>
